<svg width="103" height="103" viewBox="0 0 103 103" fill="none" xmlns="http://www.w3.org/2000/svg">
<path d="M1.55017 1.11693H101.45V101.017H1.55017V1.11693Z" fill="#F0DB4F"/>
<path d="M93.2739 77.1907C92.5421 72.6332 89.5703 68.8051 80.7673 65.2355C77.7093 63.8302 74.3001 62.8239 73.2842 60.5065C72.9235 59.1578 72.8757 58.3981 73.1039 57.5817C73.7591 54.9323 76.9216 54.1063 79.4282 54.8661C81.0426 55.4071 82.5708 56.6512 83.4925 58.6359C87.8034 55.8444 87.7947 55.8628 90.8048 53.9443C89.7027 52.2358 89.1146 51.4473 88.3932 50.7164C85.8004 47.8203 82.2676 46.3288 76.6176 46.443L73.6745 46.8236C70.8543 47.5362 68.1665 49.0166 66.5905 51.0012C61.8614 56.3671 63.21 65.7582 68.9646 69.6231C74.6337 73.8781 82.9618 74.8461 84.0256 78.825C85.0606 83.6962 80.4457 85.273 75.8587 84.7128C72.4783 84.0098 70.5981 82.2916 68.5656 79.1674C64.8244 81.3324 64.8244 81.3324 60.978 83.5445C61.8901 85.5388 62.8485 86.4413 64.3775 88.1691C71.614 95.5093 89.7227 95.1486 92.9706 84.0385C93.1023 83.6571 93.9769 81.113 93.2739 77.1907ZM55.8587 47.0311H46.5146L46.4763 71.1888C46.4763 76.3264 46.7421 81.0364 45.9066 82.48C44.5395 85.3193 40.9971 84.9674 39.3827 84.4168C37.7396 83.6092 36.9041 82.4608 35.9361 80.8376C35.6703 80.3716 35.4708 80.0109 35.4038 79.983L27.8066 84.6354C29.0699 87.2282 30.9309 89.4786 33.3146 90.9406C36.8753 93.0777 41.6611 93.7329 46.6663 92.5837C49.9238 91.6349 52.7344 89.6693 54.206 86.6776C56.3335 82.7553 55.877 78.0079 55.8579 72.7569C55.9058 64.1901 55.8587 55.625 55.8587 47.0311Z" fill="#323330"/>
</svg>
