<svg width="103" height="103" viewBox="0 0 103 103" fill="none" xmlns="http://www.w3.org/2000/svg">
<path d="M51.0139 9.76751C47.6446 9.78347 44.4286 10.07 41.5972 10.5711C33.2579 12.0443 31.7448 15.1278 31.7448 20.8153V28.3255H51.4504V30.8289H24.3488C18.6222 30.8289 13.6074 34.2707 12.0385 40.8209C10.2286 48.3263 10.1488 53.0107 12.0385 60.848C13.439 66.6824 16.7844 70.8384 22.5117 70.8384H29.2877V61.8352C29.2877 55.3305 34.9146 49.5935 41.598 49.5935H61.2812C66.7604 49.5935 71.1336 45.0815 71.1336 39.58V20.8161C71.1336 15.475 66.6279 11.4633 61.2812 10.5719C57.8944 10.0085 54.3823 9.75235 51.0139 9.76751ZM40.3571 15.8077C42.392 15.8077 44.0551 17.4971 44.0551 19.5752C44.0551 21.6445 42.3928 23.3179 40.3571 23.3179C38.3142 23.3179 36.6599 21.6445 36.6599 19.5752C36.6591 17.4971 38.3142 15.8077 40.3571 15.8077Z" fill="url(#paint0_linear_4711_635)"/>
<path d="M73.5908 30.8289V39.58C73.5908 46.3631 67.8387 52.073 61.2805 52.073H41.5974C36.2059 52.073 31.745 56.6879 31.745 62.0873V80.8528C31.745 86.1924 36.3879 89.3342 41.5974 90.8656C47.8347 92.6986 53.8167 93.0306 61.2805 90.8656C66.241 89.4283 71.1329 86.5379 71.1329 80.8528V73.3418H51.4505V70.8376H80.9869C86.7135 70.8376 88.849 66.8435 90.8408 60.8472C92.8981 54.6745 92.8095 48.738 90.8408 40.8201C89.4251 35.1182 86.7222 30.8281 80.9869 30.8281L73.5908 30.8289ZM62.5199 78.3486C64.5636 78.3486 66.2179 80.0221 66.2179 82.0929C66.2179 84.1694 64.5628 85.8588 62.5199 85.8588C60.4849 85.8588 58.8226 84.1694 58.8226 82.0929C58.8226 80.0221 60.4849 78.3486 62.5199 78.3486Z" fill="url(#paint1_linear_4711_635)"/>
<path opacity="0.444" d="M78.0813 95.4343C78.0813 98.2616 66.2578 100.554 51.674 100.554C37.0893 100.554 25.2659 98.2616 25.2659 95.4343C25.2659 92.6061 37.0885 90.3134 51.674 90.3134C66.2578 90.3134 78.0813 92.6053 78.0813 95.4343Z" fill="url(#paint2_radial_4711_635)"/>
<defs>
<linearGradient id="paint0_linear_4711_635" x1="8.67556" y1="12.1158" x2="54.1259" y2="50.8756" gradientUnits="userSpaceOnUse">
<stop stop-color="#5A9FD4"/>
<stop offset="1" stop-color="#306998"/>
</linearGradient>
<linearGradient id="paint1_linear_4711_635" x1="71.2262" y1="74.9693" x2="54.927" y2="52.1123" gradientUnits="userSpaceOnUse">
<stop stop-color="#FFD43B"/>
<stop offset="1" stop-color="#FFE873"/>
</linearGradient>
<radialGradient id="paint2_radial_4711_635" cx="0" cy="0" r="1" gradientUnits="userSpaceOnUse" gradientTransform="translate(51.5672 95.2876) rotate(-90) scale(5.12195 22.5153)">
<stop stop-color="#B8B8B8" stop-opacity="0.498"/>
<stop offset="1" stop-color="#7F7F7F" stop-opacity="0"/>
</radialGradient>
</defs>
</svg>
