<svg width="314" height="317" viewBox="0 0 314 317" fill="none" xmlns="http://www.w3.org/2000/svg">
<g clip-path="url(#clip0_56_218)" filter="url(#filter0_d_56_218)">
<path d="M81.442 296.06C81.1033 296.076 80.7679 295.987 80.4814 295.806C80.1949 295.626 79.9711 295.362 79.8403 295.05C79.7095 294.739 79.678 294.395 79.7501 294.065C79.8222 293.735 79.9944 293.435 80.2434 293.206C80.2851 293.04 80.315 292.922 80.3567 292.757C80.0326 291.937 79.4698 291.232 78.7407 290.732C78.0115 290.233 77.1492 289.961 76.2642 289.953C75.3792 289.945 74.5118 290.2 73.7733 290.686C73.0348 291.171 72.4588 291.866 72.1192 292.679C70.1591 297.248 67.6223 301.978 68.8839 307.011C60.5506 289.423 63.3846 267.545 75.7 252.503C79.1042 250.636 81.8633 247.318 82.5816 243.466C80.8969 244.034 78.7963 242.67 80.063 240.902C80.6121 240.227 81.1665 239.557 81.7155 238.881C75.3158 232.094 67.6906 242.761 74.7348 251.922C72.4305 254.799 70.4344 257.908 68.7793 261.199C69.1615 257.705 68.7053 254.17 67.4482 250.886C66.1742 247.825 63.7862 245.248 61.6832 242.602C59.1264 239.378 53.864 240.865 53.5199 244.956C55.8796 245.729 56.1861 249.123 53.4869 249.588C54.1939 257.199 59.1872 264.194 66.0643 267.532C63.5247 274.628 62.533 282.182 63.1553 289.69C61.9414 280.915 52.4832 278.786 45.8724 275.299C45.4517 275.03 44.9615 274.889 44.4616 274.893C43.9618 274.897 43.474 275.046 43.0576 275.321C42.6412 275.596 42.3143 275.987 42.1168 276.444C41.9192 276.901 41.8596 277.406 41.9451 277.896C42.8576 278.266 43.7309 278.724 44.5522 279.266C44.9371 279.523 45.2325 279.893 45.398 280.325C45.5634 280.756 45.5909 281.228 45.4765 281.676C45.3621 282.123 45.1115 282.525 44.7591 282.825C44.4066 283.125 43.9696 283.309 43.5079 283.352C46.8402 291.565 55.4554 297.081 64.3039 297.049C65.1542 300.729 66.3862 304.311 67.9801 307.737H81.113C81.1601 307.592 81.2024 307.442 81.2448 307.297C80.0292 307.373 78.8088 307.3 77.6109 307.081C80.827 303.289 83.3142 301.354 81.4425 296.06L81.442 296.06Z" fill="#5390D9"/>
<path d="M198.524 296.06C198.863 296.076 199.198 295.987 199.485 295.806C199.771 295.626 199.995 295.362 200.126 295.05C200.257 294.739 200.288 294.395 200.216 294.065C200.144 293.735 199.972 293.435 199.723 293.206C199.681 293.04 199.651 292.922 199.609 292.757C199.933 291.937 200.496 291.232 201.225 290.732C201.954 290.233 202.817 289.961 203.702 289.953C204.587 289.945 205.454 290.2 206.193 290.686C206.931 291.171 207.507 291.866 207.847 292.679C209.807 297.248 212.344 301.978 211.082 307.011C219.415 289.423 216.581 267.545 204.266 252.503C200.862 250.636 198.103 247.318 197.384 243.466C199.069 244.034 201.17 242.67 199.903 240.902C199.354 240.227 198.799 239.557 198.25 238.881C204.65 232.094 212.275 242.761 205.231 251.922C207.536 254.799 209.532 257.908 211.187 261.199C210.804 257.705 211.261 254.17 212.518 250.886C213.792 247.825 216.18 245.248 218.283 242.602C220.84 239.378 226.102 240.865 226.446 244.956C224.086 245.729 223.78 249.123 226.479 249.588C225.772 257.199 220.779 264.194 213.902 267.532C216.441 274.628 217.433 282.182 216.811 289.69C218.025 280.915 227.483 278.786 234.094 275.299C234.514 275.03 235.005 274.889 235.504 274.893C236.004 274.897 236.492 275.046 236.908 275.321C237.325 275.596 237.652 275.987 237.849 276.444C238.047 276.901 238.106 277.406 238.021 277.896C237.108 278.266 236.235 278.724 235.414 279.266C235.029 279.523 234.733 279.893 234.568 280.325C234.403 280.756 234.375 281.228 234.489 281.676C234.604 282.123 234.854 282.525 235.207 282.825C235.559 283.125 235.996 283.309 236.458 283.352C233.126 291.565 224.51 297.081 215.662 297.049C214.812 300.729 213.58 304.311 211.986 307.737H198.853C198.806 307.592 198.764 307.442 198.721 307.297C199.937 307.373 201.157 307.3 202.355 307.081C199.139 303.289 196.652 301.354 198.524 296.06L198.524 296.06Z" fill="#5390D9"/>
<path d="M203.393 298.002L197.738 299.283L190.083 278.169L198.43 276.277L203.393 298.002Z" fill="#FFB6B6"/>
<path d="M204.935 303.832L187.543 307.773L187.493 307.554C187.085 305.766 187.406 303.89 188.387 302.338C189.367 300.786 190.927 299.686 192.722 299.279L192.722 299.279L195.351 296.158L201.827 297.216L203.345 296.872L204.935 303.832Z" fill="#2F2E41"/>
<path d="M294.629 195.082L297.738 199.957L280.332 214.222L275.743 207.025L294.629 195.082Z" fill="#FFB6B6"/>
<path d="M299.627 191.679L309.189 206.674L308.999 206.794C307.445 207.777 305.562 208.105 303.765 207.706C301.968 207.306 300.404 206.212 299.416 204.665L299.416 204.664L295.583 203.245L294.411 196.815L293.576 195.506L299.627 191.679Z" fill="#2F2E41"/>
<path d="M114.345 142.95L112.948 134.887L134.185 125.337L138.772 117.251C138.624 116.541 138.675 115.804 138.921 115.122C139.167 114.44 139.598 113.839 140.165 113.385C140.732 112.931 141.415 112.642 142.137 112.551C142.859 112.459 143.592 112.567 144.256 112.864C144.92 113.161 145.488 113.635 145.898 114.234C146.308 114.833 146.545 115.533 146.581 116.256C146.616 116.98 146.451 117.7 146.102 118.336C145.753 118.972 145.234 119.5 144.603 119.86L137.058 131.476L114.345 142.95Z" fill="#A0616A"/>
<path d="M107.89 136.359L117.453 131.494L119.985 140.96L113.342 145.864L107.89 136.359Z" fill="#0061FF"/>
<path d="M86.4293 297.269L92.2117 297.268L94.9626 275.056L86.4279 275.057L86.4293 297.269Z" fill="#A0616A"/>
<path d="M94.136 297.787V293.883L92.6158 293.976L86.4275 294.341L84.9953 294.428L83.9004 307.503L83.8417 308.204H87.9477L88.0797 307.508L88.676 304.344L90.2158 307.508L90.553 308.204H101.439C102.086 308.2 102.707 307.942 103.164 307.485C103.622 307.028 103.88 306.41 103.883 305.765C104.342 303.628 95.2895 299.009 94.136 297.787Z" fill="#2F2E41"/>
<path d="M17.788 209.119L16.44 214.719L37.4883 222.562L39.4776 214.297L17.788 209.119Z" fill="#A0616A"/>
<path d="M15.9425 216.462L19.7547 217.372L20.0188 215.878L21.1052 209.8L21.3536 208.393L8.84143 204.284L8.17061 204.064L7.21327 208.04L7.86222 208.33L10.8128 209.646L7.36417 210.399L6.6058 210.563L4.0677 221.105C3.92065 221.733 4.02841 222.394 4.36759 222.943C4.70677 223.493 5.24998 223.887 5.87925 224.04C7.85884 224.984 14.4805 217.294 15.9425 216.462Z" fill="#2F2E41"/>
<path d="M95.3703 153.515L87.9272 150.05L73.0841 167.938L64.043 170.215C63.3946 169.886 62.6675 169.742 61.9419 169.799C61.2164 169.855 60.5206 170.11 59.9316 170.536C59.3425 170.962 58.8831 171.541 58.6039 172.21C58.3248 172.88 58.2369 173.613 58.35 174.329C58.463 175.045 58.7726 175.716 59.2444 176.268C59.7163 176.819 60.3322 177.23 61.0239 177.456C61.7157 177.681 62.4565 177.711 63.1645 177.543C63.8725 177.375 64.5201 177.016 65.0359 176.504L78.2749 172.315L95.3703 153.515Z" fill="#A0616A"/>
<path d="M200.893 87.2952C199.315 87.2952 197.773 86.8293 196.461 85.9564C195.149 85.0835 194.127 83.8428 193.523 82.3912C192.92 80.9396 192.762 79.3424 193.069 77.8014C193.377 76.2604 194.137 74.8449 195.252 73.734C196.368 72.623 197.789 71.8664 199.337 71.5599C200.884 71.2533 202.488 71.4107 203.946 72.0119C205.403 72.6132 206.649 73.6314 207.526 74.9378C208.402 76.2441 208.87 77.78 208.87 79.3512C208.868 81.4573 208.027 83.4766 206.531 84.9658C205.036 86.4551 203.008 87.2928 200.893 87.2952ZM200.893 72.3189C199.496 72.3189 198.131 72.7313 196.97 73.504C195.809 74.2768 194.904 75.3751 194.369 76.66C193.835 77.945 193.695 79.359 193.967 80.7231C194.24 82.0873 194.912 83.3403 195.9 84.3238C196.887 85.3073 198.146 85.977 199.515 86.2484C200.885 86.5197 202.305 86.3805 203.595 85.8482C204.886 85.3159 205.989 84.4146 206.765 83.2581C207.541 82.1017 207.955 80.742 207.955 79.3512C207.953 77.4867 207.208 75.6993 205.884 74.3809C204.56 73.0626 202.765 72.321 200.893 72.3189Z" fill="#35B032"/>
<path d="M200.33 82.344C200.314 82.344 200.298 82.3435 200.282 82.3428C200.14 82.3359 200.002 82.2987 199.876 82.2336C199.75 82.1685 199.64 82.0771 199.553 81.9656L198.296 80.3568C198.217 80.2552 198.159 80.1391 198.124 80.015C198.09 79.891 198.081 79.7614 198.097 79.6337C198.113 79.506 198.154 79.3827 198.218 79.2709C198.282 79.159 198.367 79.0608 198.469 78.9818L198.514 78.9468C198.616 78.8677 198.733 78.8094 198.857 78.7753C198.982 78.7411 199.112 78.7317 199.24 78.7477C199.369 78.7637 199.492 78.8046 199.605 78.8683C199.717 78.9319 199.816 79.017 199.895 79.1186C199.959 79.1998 200.039 79.2663 200.131 79.3137C200.222 79.3611 200.323 79.3882 200.426 79.3932C200.529 79.3983 200.633 79.381 200.728 79.3427C200.824 79.3044 200.911 79.2459 200.982 79.1713L203.533 76.4889C203.713 76.3005 203.96 76.1908 204.221 76.1837C204.482 76.1767 204.735 76.2729 204.924 76.4513L204.966 76.491C205.06 76.5795 205.135 76.6855 205.188 76.803C205.241 76.9205 205.269 77.0471 205.273 77.1758C205.276 77.3044 205.254 77.4325 205.208 77.5526C205.162 77.6728 205.092 77.7827 205.004 77.8761L201.044 82.038C200.952 82.1347 200.842 82.2117 200.719 82.2643C200.596 82.3169 200.464 82.3441 200.33 82.344Z" fill="#35B032"/>
<path d="M161.071 183.474C159.494 183.474 157.951 183.008 156.639 182.135C155.328 181.262 154.305 180.021 153.701 178.57C153.098 177.118 152.94 175.521 153.247 173.98C153.555 172.439 154.315 171.024 155.431 169.913C156.546 168.802 157.968 168.045 159.515 167.739C161.062 167.432 162.666 167.589 164.124 168.191C165.582 168.792 166.827 169.81 167.704 171.116C168.58 172.423 169.048 173.959 169.048 175.53C169.046 177.636 168.205 179.655 166.709 181.145C165.214 182.634 163.186 183.471 161.071 183.474ZM161.071 168.498C159.675 168.498 158.309 168.91 157.148 169.683C155.987 170.455 155.082 171.554 154.547 172.839C154.013 174.124 153.873 175.538 154.145 176.902C154.418 178.266 155.09 179.519 156.078 180.502C157.066 181.486 158.324 182.156 159.694 182.427C161.063 182.698 162.483 182.559 163.774 182.027C165.064 181.495 166.167 180.593 166.943 179.437C167.719 178.28 168.133 176.921 168.133 175.53C168.131 173.665 167.386 171.878 166.062 170.56C164.738 169.241 162.943 168.5 161.071 168.498Z" fill="#35B032"/>
<path d="M160.508 178.523C160.492 178.523 160.476 178.522 160.46 178.521C160.319 178.514 160.18 178.477 160.054 178.412C159.929 178.347 159.818 178.256 159.731 178.144L158.475 176.535C158.395 176.434 158.337 176.318 158.303 176.194C158.268 176.069 158.259 175.94 158.275 175.812C158.291 175.685 158.332 175.561 158.396 175.449C158.46 175.337 158.545 175.239 158.647 175.16L158.692 175.125C158.794 175.046 158.911 174.988 159.036 174.954C159.16 174.92 159.29 174.91 159.419 174.926C159.547 174.942 159.671 174.983 159.783 175.047C159.895 175.11 159.994 175.195 160.073 175.297C160.137 175.378 160.217 175.445 160.309 175.492C160.4 175.54 160.501 175.567 160.604 175.572C160.708 175.577 160.811 175.559 160.907 175.521C161.002 175.483 161.089 175.424 161.16 175.35L163.711 172.667C163.891 172.479 164.138 172.369 164.399 172.362C164.66 172.355 164.913 172.451 165.102 172.63L165.144 172.669C165.238 172.758 165.313 172.864 165.366 172.981C165.419 173.099 165.448 173.226 165.451 173.354C165.455 173.483 165.433 173.611 165.386 173.731C165.34 173.851 165.271 173.961 165.182 174.055L161.222 178.216C161.13 178.313 161.02 178.39 160.897 178.443C160.774 178.495 160.642 178.523 160.508 178.523Z" fill="#35B032"/>
<path d="M73.6464 76.3554C72.0687 76.3554 70.5264 75.8895 69.2146 75.0167C67.9027 74.1438 66.8803 72.9031 66.2765 71.4515C65.6728 69.9999 65.5148 68.4027 65.8226 66.8617C66.1304 65.3207 66.8901 63.9052 68.0057 62.7943C69.1213 61.6833 70.5427 60.9267 72.0901 60.6202C73.6375 60.3137 75.2414 60.471 76.6991 61.0722C78.1567 61.6735 79.4025 62.6917 80.2791 63.9981C81.1556 65.3044 81.6234 66.8403 81.6234 68.4115C81.6211 70.5176 80.7799 72.5368 79.2844 74.0261C77.7889 75.5154 75.7613 76.3531 73.6464 76.3554ZM73.6464 61.3792C72.2497 61.3792 70.8844 61.7916 69.7232 62.5643C68.5619 63.3371 67.6568 64.4354 67.1223 65.7203C66.5878 67.0053 66.448 68.4193 66.7204 69.7834C66.9929 71.1476 67.6655 72.4006 68.6531 73.3841C69.6407 74.3676 70.8989 75.0373 72.2687 75.3087C73.6385 75.58 75.0584 75.4408 76.3487 74.9085C77.6391 74.3762 78.742 73.4749 79.5179 72.3184C80.2938 71.162 80.708 69.8023 80.708 68.4115C80.7059 66.547 79.9612 64.7596 78.6374 63.4412C77.3135 62.1229 75.5186 61.3813 73.6464 61.3792Z" fill="#35B032"/>
<path d="M73.0834 71.4043C73.0674 71.4043 73.0514 71.4038 73.0353 71.403C72.8937 71.3962 72.7552 71.359 72.6294 71.2939C72.5036 71.2288 72.3934 71.1374 72.3064 71.0259L71.0498 69.4171C70.9704 69.3155 70.9119 69.1994 70.8777 69.0753C70.8434 68.9513 70.834 68.8217 70.85 68.694C70.866 68.5663 70.9071 68.443 70.971 68.3312C71.0349 68.2193 71.1202 68.1211 71.2222 68.0421L71.2674 68.0071C71.3694 67.928 71.4861 67.8697 71.6107 67.8356C71.7353 67.8014 71.8654 67.792 71.9937 67.808C72.1219 67.824 72.2458 67.8649 72.3581 67.9286C72.4704 67.9922 72.5691 68.0773 72.6484 68.1789C72.7119 68.2601 72.7922 68.3266 72.8839 68.374C72.9755 68.4214 73.0764 68.4485 73.1796 68.4535C73.2828 68.4585 73.3858 68.4413 73.4817 68.403C73.5775 68.3647 73.664 68.3062 73.7351 68.2316L76.2865 65.5492C76.4661 65.3608 76.7134 65.2511 76.9741 65.244C77.2349 65.237 77.4878 65.3332 77.6774 65.5116L77.7193 65.5513C77.8131 65.6398 77.8885 65.7458 77.9411 65.8633C77.9938 65.9808 78.0227 66.1074 78.0262 66.2361C78.0297 66.3647 78.0077 66.4928 77.9615 66.6129C77.9152 66.7331 77.8457 66.843 77.7568 66.9364L73.7973 71.0983C73.7055 71.195 73.5948 71.272 73.4721 71.3246C73.3493 71.3772 73.2171 71.4044 73.0834 71.4043Z" fill="#35B032"/>
<path d="M137.511 213.01C119.013 213.01 97.7542 192.568 78.9456 202.281C21.9981 231.688 29.8373 182.48 13.4767 164.179L14.0138 163.106C32.0658 179.226 54.6043 192.341 79.1929 201.033C101.413 208.889 123.8 212.529 143.925 211.568L143.96 212.858C141.835 212.96 139.685 213.011 137.511 213.01Z" fill="#5390D9"/>
<path d="M112.136 74.8005C114.272 74.8005 116.003 72.4888 116.003 69.6372C116.003 66.7856 114.272 64.4739 112.136 64.4739C110.001 64.4739 108.27 66.7856 108.27 69.6372C108.27 72.4888 110.001 74.8005 112.136 74.8005Z" fill="#0061FF"/>
<path d="M156.795 155.349C155.027 156.522 153.218 153.73 155.02 152.609C156.787 151.436 158.596 154.228 156.795 155.349Z" fill="#0061FF"/>
<path d="M146.62 61.366C149.401 61.366 151.655 59.1211 151.655 56.3519C151.655 53.5828 149.401 51.3379 146.62 51.3379C143.839 51.3379 141.585 53.5828 141.585 56.3519C141.585 59.1211 143.839 61.366 146.62 61.366Z" fill="#FF6584"/>
<path opacity="0.3" d="M164.23 83.8285L192.881 0.5L161.421 82.831C161.265 83.0264 161.159 83.2559 161.11 83.5006C161.061 83.7452 161.072 83.9979 161.141 84.2376C161.21 84.4774 161.335 84.6973 161.506 84.8791C161.678 85.061 161.89 85.1996 162.126 85.2833C162.362 85.3671 162.615 85.3936 162.863 85.3607C163.111 85.3278 163.348 85.2365 163.554 85.0943C163.759 84.952 163.928 84.763 164.046 84.5429C164.163 84.3227 164.227 84.0778 164.23 83.8285H164.23Z" fill="#F0F0F0"/>
<path d="M135.311 185.347C138.017 185.347 140.21 183.163 140.21 180.468C140.21 177.774 138.017 175.59 135.311 175.59C132.606 175.59 130.413 177.774 130.413 180.468C130.413 183.163 132.606 185.347 135.311 185.347Z" fill="#5390D9"/>
<path d="M87.8663 182.329C87.8663 182.329 75.654 190.249 78.8832 195.511C78.9946 195.692 64.2957 215.025 64.2957 215.025L36.5477 213.271L35.5701 222.52L60.2733 229.645C60.2733 229.645 66.3167 234.066 70.9854 229.194C75.6541 224.323 91.2049 209.405 91.2049 209.405L91.955 239.524L84.1485 281.26L95.8044 280.524L107.149 238.652L111.337 191.222L87.8663 182.329Z" fill="#2F2E41"/>
<path d="M96.5652 134.801L91.4297 138.677L85.5763 151.118L91.2048 158.731C91.2048 158.731 95.9394 166.902 88.361 174.816C80.7826 182.729 74.9631 191.181 81.0289 190.879C87.0947 190.577 111.662 203.021 111.824 192.826C111.985 182.632 112.312 174.816 112.312 174.816L118.753 158.547C118.753 158.547 122.591 148.842 119.897 145.936C117.202 143.031 113.595 139.319 113.595 139.319L107.035 132.786H101.112L96.5652 134.801Z" fill="#0061FF"/>
<path d="M106.152 110.897C117.673 117.426 108.215 134.652 96.4788 128.518C84.9582 121.989 94.4164 104.763 106.152 110.897Z" fill="#A0616A"/>
<path d="M112.312 114.517C111.505 115.563 109.819 115.072 106.516 115.819C106.523 114.704 106.394 113.592 106.131 112.508C105.885 113.85 105.346 115.122 104.553 116.234C101.685 116.55 105.201 125.227 103.732 131.606C101.84 118.148 97.8609 121.674 99.8713 124.343C101.158 126.052 100.3 131.179 96.4392 128.616C90.0687 131.631 80.995 116.653 91.0514 109.629C90.8717 105.832 95.1139 105.233 97.7262 106.4C104.066 101.697 111.309 107.723 112.312 114.517Z" fill="#2F2E41"/>
<path d="M82.752 104.697C80.187 120.402 66.4387 101.809 59.9743 117.264C57.9419 122.861 61.4291 126.865 63.6349 131.511C64.1383 135.329 59.1507 137.266 58.6283 140.781C58.4829 148.838 71.536 148.345 75.1851 143.261C78.9346 137.94 74.4572 130.8 76.7109 125.088C79.8784 117.158 92.7603 117.099 93.8825 107.873C91.7091 104.791 85.8649 101.261 82.752 104.697Z" fill="#2F2E41"/>
<path d="M93.1428 106.232C93.0589 106.267 92.975 106.302 92.8999 106.342H92.8955C92.8248 106.377 92.7541 106.412 92.6835 106.452C92.6747 106.456 92.6703 106.46 92.6614 106.465C92.5687 106.377 92.4759 106.289 92.3788 106.201C92.3536 106.344 92.3597 106.491 92.3964 106.632L92.4097 106.685C92.498 106.777 92.5908 106.865 92.6879 106.957C92.7763 106.891 92.8602 106.821 92.9485 106.755C93.0015 106.711 93.0545 106.667 93.1119 106.623C93.1207 106.509 93.134 106.377 93.1472 106.232L93.1428 106.232ZM95.8015 101.341C93.8318 100.892 93.1958 103.456 93.0059 104.692C92.2904 100.206 89.3137 101.618 90.3428 104.679C90.6708 105.585 91.1869 106.413 91.8576 107.107C91.9504 107.212 92.0519 107.318 92.1579 107.424C92.0387 108.039 92.6393 107.881 93.452 107.314C94.052 106.889 94.6069 106.404 95.1081 105.867C96.729 104.173 97.9921 101.908 95.8015 101.341ZM95.8634 103.865C95.2557 104.646 94.5738 105.366 93.8274 106.016C93.5933 106.227 93.3548 106.43 93.1119 106.623C93.1075 106.663 93.1075 106.698 93.1031 106.729C93.086 106.771 93.0653 106.813 93.0412 106.852C92.7939 107.296 92.5157 107.054 92.4097 106.685C92.4008 106.671 92.3876 106.658 92.3788 106.645C92.0258 106.282 91.7188 105.877 91.4645 105.44C89.6405 102.291 92.5775 100.149 92.4318 106.029C92.4049 106.083 92.387 106.141 92.3788 106.201C92.3536 106.344 92.3597 106.491 92.3964 106.632L92.4097 106.685C92.498 106.777 92.5908 106.865 92.6879 106.957C92.7763 106.891 92.8602 106.821 92.9485 106.755C93.0015 106.711 93.0545 106.667 93.1119 106.623C93.1207 106.509 93.134 106.377 93.1472 106.232V106.227C93.2621 105.049 93.5757 102.929 94.1542 102.352C95.4261 101.38 97.0735 102.432 95.8634 103.865ZM93.1428 106.232C93.0589 106.267 92.975 106.302 92.8999 106.342H92.8955C92.8248 106.377 92.7541 106.412 92.6835 106.452C92.6747 106.456 92.6703 106.46 92.6614 106.465C92.5687 106.377 92.4759 106.289 92.3788 106.201C92.3536 106.344 92.3597 106.491 92.3964 106.632L92.4097 106.685C92.498 106.777 92.5908 106.865 92.6879 106.957C92.7763 106.891 92.8602 106.821 92.9485 106.755C93.0015 106.711 93.0545 106.667 93.1119 106.623C93.1207 106.509 93.134 106.377 93.1472 106.232L93.1428 106.232Z" fill="#2F2E41"/>
<path d="M199.629 192.819L195.374 203.87L175.413 243.08L192.952 288.693L202.004 286.313L194.543 243.08L215.948 217.18L241.368 234.35C241.368 234.35 252.642 243.114 256.931 234.805C261.22 226.496 288.971 208.823 288.971 208.823L282.106 201.53L250.148 216.424L228.091 185.506L199.629 192.819Z" fill="#2F2E41"/>
<path d="M221.099 140.694L214.095 133.2L202.079 131.554L187.357 141.818L187.506 153.178L194.783 179.948C194.783 179.948 192.011 199.181 199.754 198.988C207.497 198.795 211.717 194.951 214.871 195.734C218.025 196.516 231.43 199.847 232.28 196.358C233.129 192.87 237.645 195.368 237.447 192.067C237.249 188.767 225.222 164.979 225.222 164.979L228.212 141.189L221.099 140.694Z" fill="#0061FF"/>
<path d="M265.448 106.197C265.511 106.819 265.436 107.446 265.229 108.036C265.021 108.626 264.687 109.163 264.249 109.61C263.81 110.056 263.279 110.402 262.692 110.622C262.105 110.843 261.477 110.932 260.852 110.884L244.744 141.391L240.42 134.78L256.884 105.988C257.034 104.947 257.562 103.997 258.368 103.318C259.175 102.64 260.203 102.279 261.259 102.305C262.315 102.33 263.324 102.741 264.096 103.458C264.868 104.176 265.349 105.15 265.448 106.197Z" fill="#FFB6B6"/>
<path d="M214.74 146.367C214.74 146.367 214.101 151.793 220.235 153.136C226.37 154.48 243.365 144.809 246.151 143.332C247.024 142.869 248.208 140.602 249.422 137.706C249.968 136.406 250.519 134.979 251.052 133.531C251.36 132.694 252.835 132.465 253.125 131.634C253.414 130.808 252.518 129.38 252.779 128.601C254.02 124.906 254.9 121.974 254.9 121.974L250.834 114.368C245.148 117.362 242.231 123.956 240.086 131.553L214.74 146.367Z" fill="#0061FF"/>
<path d="M143.097 113.203C143.193 113.82 143.423 114.409 143.772 114.929C144.12 115.448 144.579 115.884 145.116 116.208C145.652 116.531 146.254 116.734 146.877 116.8C147.501 116.867 148.132 116.797 148.725 116.595L171.987 142.117L174.512 134.639L151.337 110.866C150.93 109.896 150.179 109.108 149.228 108.651C148.277 108.195 147.19 108.102 146.175 108.39C145.159 108.678 144.285 109.327 143.717 110.214C143.15 111.101 142.93 112.165 143.097 113.203Z" fill="#FFB6B6"/>
<path d="M202.286 139.456C202.286 139.456 204.269 144.551 198.667 147.38C193.065 150.21 174.18 145.082 171.112 144.347C170.151 144.116 168.435 142.216 166.531 139.715C165.676 138.592 164.784 137.348 163.904 136.079C163.396 135.345 161.91 135.491 161.42 134.759C160.933 134.032 161.442 132.425 160.993 131.737C158.863 128.468 157.274 125.848 157.274 125.848L159.3 117.471C165.557 118.953 170.038 124.61 174.024 131.431L202.286 139.456Z" fill="#0061FF"/>
<path d="M208.327 129.648C214.64 129.648 219.759 124.551 219.759 118.263C219.759 111.976 214.64 106.878 208.327 106.878C202.013 106.878 196.895 111.976 196.895 118.263C196.895 124.551 202.013 129.648 208.327 129.648Z" fill="#FFB6B6"/>
<path d="M221.376 111.744C220.174 109.892 217.917 108.657 215.73 109.004C215.526 107.614 214.943 106.305 214.045 105.222C213.146 104.139 211.967 103.322 210.634 102.86C209.302 102.398 207.868 102.309 206.488 102.602C205.108 102.896 203.836 103.561 202.809 104.525C202.471 104.288 202.078 104.142 201.667 104.101C201.257 104.06 200.842 104.126 200.464 104.291C199.711 104.632 199.056 105.156 198.559 105.814C197.304 107.373 196.496 109.242 196.223 111.221C195.949 113.201 196.22 115.217 197.006 117.056C196.739 116.088 197.713 115.177 198.697 114.96C199.681 114.743 200.714 114.948 201.712 114.807C202.991 114.626 204.141 113.887 205.422 113.721C206.508 113.65 207.598 113.79 208.631 114.131C209.664 114.473 210.752 114.618 211.839 114.56C212.918 114.433 214.307 118.502 214.288 121.368C214.284 121.912 214.397 122.609 214.93 122.724C215.586 122.866 215.967 121.964 216.591 121.718C216.879 121.636 217.188 121.668 217.453 121.808C217.717 121.948 217.917 122.185 218.009 122.469C218.088 122.757 218.096 123.06 218.034 123.353C217.971 123.645 217.839 123.918 217.649 124.149C217.265 124.608 216.809 125.002 216.299 125.316L216.557 125.529C216.801 125.786 217.127 125.95 217.48 125.994C217.833 126.038 218.189 125.958 218.489 125.768C219.079 125.37 219.557 124.828 219.877 124.194C221.083 122.337 221.945 120.28 222.423 118.12C222.825 115.951 222.579 113.597 221.376 111.744Z" fill="#2F2E41"/>
<path d="M243.607 307.723C243.255 308.759 42.7392 308.759 42.3603 307.725C42.7111 306.687 243.227 306.687 243.607 307.723Z" fill="#CCCCCC"/>
</g>
<defs>
<filter id="filter0_d_56_218" x="0" y="0.5" width="315" height="316" filterUnits="userSpaceOnUse" color-interpolation-filters="sRGB">
<feFlood flood-opacity="0" result="BackgroundImageFix"/>
<feColorMatrix in="SourceAlpha" type="matrix" values="0 0 0 0 0 0 0 0 0 0 0 0 0 0 0 0 0 0 127 0" result="hardAlpha"/>
<feOffset dy="4"/>
<feGaussianBlur stdDeviation="2"/>
<feComposite in2="hardAlpha" operator="out"/>
<feColorMatrix type="matrix" values="0 0 0 0 0 0 0 0 0 0 0 0 0 0 0 0 0 0 0.25 0"/>
<feBlend mode="normal" in2="BackgroundImageFix" result="effect1_dropShadow_56_218"/>
<feBlend mode="normal" in="SourceGraphic" in2="effect1_dropShadow_56_218" result="shape"/>
</filter>
<clipPath id="clip0_56_218">
<rect width="307" height="308" fill="white" transform="translate(4 0.5)"/>
</clipPath>
</defs>
</svg>
