<svg width="33" height="11" viewBox="0 0 33 11" fill="none" xmlns="http://www.w3.org/2000/svg">
<path d="M0 5.59599C0 2.98583 2.11596 0.869873 4.72612 0.869873C7.33629 0.869873 9.45224 2.98583 9.45224 5.59599C9.45224 8.20616 7.33629 10.3221 4.72612 10.3221C2.11596 10.3221 0 8.20616 0 5.59599Z" fill="#ED6A5E"/>
<path d="M11.5317 5.59599C11.5317 2.98583 13.6477 0.869873 16.2579 0.869873C18.868 0.869873 20.984 2.98583 20.984 5.59599C20.984 8.20616 18.868 10.3221 16.2579 10.3221C13.6477 10.3221 11.5317 8.20616 11.5317 5.59599Z" fill="#F4BF4E"/>
<path d="M23.0635 5.59599C23.0635 2.98583 25.1794 0.869873 27.7896 0.869873V0.869873C30.3998 0.869873 32.5157 2.98583 32.5157 5.59599V5.59599C32.5157 8.20616 30.3998 10.3221 27.7896 10.3221V10.3221C25.1794 10.3221 23.0635 8.20616 23.0635 5.59599V5.59599V5.59599Z" fill="#60C554"/>
</svg>
