<svg width="134" height="132" viewBox="0 0 134 132" fill="none" xmlns="http://www.w3.org/2000/svg">
<g clip-path="url(#clip0_325_400)">
<path d="M85.0687 29.9615H48.9615C48.1387 29.9625 47.3498 30.2903 46.768 30.873C46.1862 31.4557 45.8589 32.2458 45.8579 33.0698V113.441L45.4441 113.567L36.5864 116.284C36.1666 116.412 35.7132 116.368 35.3257 116.162C34.9382 115.955 34.6482 115.604 34.5195 115.183L8.17196 28.9896C8.04374 28.5692 8.08744 28.115 8.29346 27.7268C8.49948 27.3386 8.85095 27.0482 9.27064 26.9195L22.9203 22.7336L62.4911 10.6029L76.1407 6.41699C76.3484 6.35297 76.5667 6.33059 76.7831 6.35115C76.9994 6.37171 77.2096 6.4348 77.4016 6.53682C77.5936 6.63883 77.7636 6.77775 77.9019 6.94565C78.0403 7.11354 78.1442 7.30711 78.2077 7.51527L84.9425 29.5471L85.0687 29.9615Z" fill="#A2CAFF"/>
<path d="M92.9479 29.5472L84.8309 2.99381C84.6959 2.55138 84.4751 2.13994 84.1812 1.783C83.8873 1.42605 83.5261 1.1306 83.1182 0.913531C82.7103 0.696458 82.2636 0.562014 81.8038 0.517886C81.344 0.473759 80.88 0.520813 80.4383 0.656354L61.2477 6.53937L21.679 18.6722L2.48849 24.5573C1.597 24.8314 0.850537 25.4487 0.412959 26.2735C-0.0246191 27.0983 -0.117567 28.0632 0.154522 28.9566L27.8965 119.705C28.1176 120.426 28.5636 121.057 29.1691 121.506C29.7746 121.955 30.5077 122.197 31.2609 122.198C31.6095 122.198 31.9561 122.146 32.2891 122.043L45.4443 118.01L45.8581 117.882V117.448L45.4443 117.575L32.1671 121.647C31.3802 121.887 30.5303 121.805 29.8038 121.418C29.0773 121.032 28.5335 120.372 28.2918 119.585L0.551867 28.8343C0.432086 28.4441 0.39034 28.0341 0.429016 27.6277C0.467692 27.2213 0.586028 26.8265 0.777255 26.466C0.968482 26.1055 1.22884 25.7863 1.54342 25.5266C1.858 25.267 2.22062 25.0721 2.61052 24.9531L21.8011 19.068L61.3699 6.93724L80.5604 1.05215C80.8562 0.961761 81.1636 0.915673 81.4728 0.915384C82.1364 0.916877 82.7821 1.13113 83.3153 1.52678C83.8484 1.92242 84.2411 2.47865 84.4358 3.114L92.5154 29.5472L92.6437 29.9616H93.0741L92.9479 29.5472Z" fill="#0061FF"/>
<path d="M124.689 121.139H54.7549C54.2886 121.138 53.8416 120.953 53.5119 120.622C53.1822 120.292 52.9968 119.845 52.9962 119.378V35.4529C52.9967 34.9859 53.1822 34.5382 53.5119 34.2079C53.8416 33.8777 54.2886 33.692 54.7549 33.6915H124.689C125.156 33.692 125.603 33.8778 125.932 34.208C126.262 34.5382 126.447 34.9859 126.448 35.4529V119.378C126.447 119.845 126.262 120.292 125.932 120.622C125.603 120.953 125.156 121.138 124.689 121.139Z" fill="#A2CAFF"/>
<path d="M92.5153 29.547H48.9615C48.029 29.5483 47.1351 29.9199 46.4758 30.5803C45.8164 31.2406 45.4454 32.1359 45.4441 33.0698V117.575L45.8579 117.448V33.0698C45.8589 32.2457 46.1862 31.4557 46.768 30.873C47.3499 30.2902 48.1387 29.9624 48.9615 29.9614H92.6436L92.5153 29.547ZM130.483 29.547H48.9615C48.029 29.5483 47.1351 29.9199 46.4758 30.5803C45.8164 31.2406 45.4454 32.1359 45.4441 33.0698V127.977C45.4454 128.911 45.8164 129.806 46.4758 130.467C47.1351 131.127 48.029 131.499 48.9615 131.5H130.483C131.415 131.499 132.309 131.127 132.968 130.467C133.628 129.806 133.999 128.911 134 127.977V33.0698C133.999 32.1359 133.628 31.2406 132.968 30.5803C132.309 29.9199 131.415 29.5483 130.483 29.547ZM133.586 127.977C133.585 128.801 133.258 129.591 132.676 130.174C132.094 130.757 131.305 131.085 130.483 131.086H48.9615C48.1387 131.085 47.3499 130.757 46.768 130.174C46.1862 129.591 45.8589 128.801 45.8579 127.977V33.0698C45.8589 32.2457 46.1862 31.4557 46.768 30.873C47.3499 30.2902 48.1387 29.9624 48.9615 29.9614H130.483C131.305 29.9624 132.094 30.2902 132.676 30.873C133.258 31.4557 133.585 32.2457 133.586 33.0698V127.977Z" fill="#0061FF"/>
</g>
<defs>
<clipPath id="clip0_325_400">
<rect width="134" height="131" fill="white" transform="translate(0 0.5)"/>
</clipPath>
</defs>
</svg>
