<svg width="769" height="801" viewBox="0 0 769 801" fill="none" xmlns="http://www.w3.org/2000/svg">
<rect width="768.146" height="801" rx="177.106" fill="#5390D9"/>
<g filter="url(#filter0_d_4718_412)">
<g filter="url(#filter1_d_4718_412)">
<rect x="61.6155" y="81.0729" width="587.579" height="587.579" rx="45.4314" fill="#A2CAFF"/>
<rect x="68.4302" y="87.8876" width="573.95" height="573.95" rx="38.6167" stroke="#0061FF" stroke-width="13.6294"/>
</g>
<path d="M253.765 445.601L145.759 380.914C140.491 377.597 137.856 373.109 137.856 367.45C137.856 362.377 140.491 357.986 145.759 354.279L253.765 289.299C259.034 286.568 264.107 286.568 268.986 289.299C273.864 291.836 276.303 295.934 276.303 301.593C276.303 307.447 273.864 311.837 268.986 314.764L170.346 373.304V360.718L268.986 419.843C273.864 422.966 276.303 427.258 276.303 432.722C276.303 436.625 275.035 439.942 272.498 442.674C270.157 445.211 267.23 446.869 263.717 447.65C260.205 448.235 256.887 447.552 253.765 445.601ZM457.667 445.601C454.545 447.552 451.228 448.235 447.715 447.65C444.203 446.869 441.178 445.211 438.642 442.674C436.3 439.942 435.129 436.625 435.129 432.722C435.129 427.258 437.568 422.966 442.447 419.843L541.086 360.718V373.304L442.447 314.764C437.568 311.837 435.129 307.447 435.129 301.593C435.129 295.934 437.568 291.836 442.447 289.299C447.325 286.568 452.398 286.568 457.667 289.299L565.673 354.279C570.942 357.986 573.576 362.377 573.576 367.45C573.576 373.109 570.942 377.597 565.673 380.914L457.667 445.601Z" fill="white"/>
<path d="M312.561 490.969C307.098 490.969 302.902 488.725 299.975 484.237C297.243 479.944 296.951 475.164 299.097 469.895L387.2 249.492C388.37 246.761 390.224 244.614 392.761 243.053C395.298 241.492 398.03 240.711 400.957 240.711C406.03 240.711 410.03 242.858 412.957 247.151C416.079 251.249 416.567 256.127 414.421 261.786L326.318 482.188C325.147 485.311 323.196 487.555 320.464 488.92C317.927 490.286 315.293 490.969 312.561 490.969Z" fill="#0061FF"/>
</g>
<g filter="url(#filter2_d_4718_412)">
<rect x="122.948" y="136.348" width="573.95" height="573.95" rx="38.6167" fill="#A2CAFF" stroke="#0061FF" stroke-width="13.6294"/>
<path d="M308.283 494.062L200.277 429.375C195.008 426.058 192.374 421.57 192.374 415.911C192.374 410.838 195.008 406.447 200.277 402.74L308.283 337.76C313.551 335.028 318.625 335.028 323.503 337.76C328.381 340.297 330.821 344.395 330.821 350.054C330.821 355.908 328.381 360.298 323.503 363.225L224.863 421.765V409.179L323.503 468.304C328.381 471.426 330.821 475.719 330.821 481.183C330.821 485.086 329.552 488.403 327.015 491.135C324.674 493.672 321.747 495.33 318.234 496.111C314.722 496.696 311.405 496.013 308.283 494.062ZM512.184 494.062C509.062 496.013 505.745 496.696 502.233 496.111C498.72 495.33 495.696 493.672 493.159 491.135C490.817 488.403 489.647 485.086 489.647 481.183C489.647 475.719 492.086 471.426 496.964 468.304L595.604 409.179V421.765L496.964 363.225C492.086 360.298 489.647 355.908 489.647 350.054C489.647 344.395 492.086 340.297 496.964 337.76C501.842 335.028 506.916 335.028 512.184 337.76L620.19 402.74C625.459 406.447 628.093 410.838 628.093 415.911C628.093 421.57 625.459 426.058 620.19 429.375L512.184 494.062Z" fill="white"/>
<path d="M367.079 539.43C361.615 539.43 357.42 537.186 354.493 532.698C351.761 528.405 351.468 523.624 353.614 518.356L441.717 297.953C442.888 295.221 444.742 293.075 447.278 291.514C449.815 289.953 452.547 289.172 455.474 289.172C460.547 289.172 464.548 291.319 467.475 295.612C470.597 299.709 471.085 304.588 468.938 310.247L380.836 530.649C379.665 533.771 377.713 536.015 374.982 537.381C372.445 538.747 369.811 539.43 367.079 539.43Z" fill="#0061FF"/>
</g>
<path d="M94.9312 112.876C94.9312 104.411 101.793 97.5491 110.258 97.5491C118.722 97.5491 125.584 104.411 125.584 112.876C125.584 121.34 118.722 128.202 110.258 128.202C101.793 128.202 94.9312 121.34 94.9312 112.876Z" fill="#ED6A5E"/>
<path d="M132.328 112.876C132.328 104.411 139.19 97.5491 147.654 97.5491C156.119 97.5491 162.98 104.411 162.98 112.876C162.98 121.34 156.119 128.202 147.654 128.202C139.19 128.202 132.328 121.34 132.328 112.876Z" fill="#F4BF4E"/>
<path d="M169.724 112.876C169.724 104.411 176.586 97.5491 185.051 97.5491C193.515 97.5491 200.377 104.411 200.377 112.876C200.377 121.34 193.515 128.202 185.051 128.202C176.586 128.202 169.724 121.34 169.724 112.876Z" fill="#60C554"/>
<path d="M149.45 161.335C149.45 152.87 156.312 146.009 164.776 146.009C173.241 146.009 180.103 152.87 180.103 161.335C180.103 169.799 173.241 176.661 164.776 176.661C156.312 176.661 149.45 169.799 149.45 161.335Z" fill="#ED6A5E"/>
<path d="M186.846 161.335C186.846 152.87 193.708 146.009 202.172 146.009C210.637 146.009 217.499 152.87 217.499 161.335C217.499 169.799 210.637 176.661 202.172 176.661C193.708 176.661 186.846 169.799 186.846 161.335Z" fill="#F4BF4E"/>
<path d="M224.242 161.335C224.242 152.87 231.104 146.009 239.569 146.009C248.033 146.009 254.895 152.87 254.895 161.335C254.895 169.799 248.033 176.661 239.569 176.661C231.104 176.661 224.242 169.799 224.242 161.335Z" fill="#60C554"/>
<defs>
<filter id="filter0_d_4718_412" x="46.4717" y="71.9866" width="617.867" height="617.867" filterUnits="userSpaceOnUse" color-interpolation-filters="sRGB">
<feFlood flood-opacity="0" result="BackgroundImageFix"/>
<feColorMatrix in="SourceAlpha" type="matrix" values="0 0 0 0 0 0 0 0 0 0 0 0 0 0 0 0 0 0 127 0" result="hardAlpha"/>
<feOffset dy="6.05752"/>
<feGaussianBlur stdDeviation="7.5719"/>
<feComposite in2="hardAlpha" operator="out"/>
<feColorMatrix type="matrix" values="0 0 0 0 0 0 0 0 0 0 0 0 0 0 0 0 0 0 0.25 0"/>
<feBlend mode="normal" in2="BackgroundImageFix" result="effect1_dropShadow_4718_412"/>
<feBlend mode="normal" in="SourceGraphic" in2="effect1_dropShadow_4718_412" result="shape"/>
</filter>
<filter id="filter1_d_4718_412" x="46.4717" y="71.9866" width="617.867" height="617.867" filterUnits="userSpaceOnUse" color-interpolation-filters="sRGB">
<feFlood flood-opacity="0" result="BackgroundImageFix"/>
<feColorMatrix in="SourceAlpha" type="matrix" values="0 0 0 0 0 0 0 0 0 0 0 0 0 0 0 0 0 0 127 0" result="hardAlpha"/>
<feOffset dy="6.05752"/>
<feGaussianBlur stdDeviation="7.5719"/>
<feComposite in2="hardAlpha" operator="out"/>
<feColorMatrix type="matrix" values="0 0 0 0 0 0 0 0 0 0 0 0 0 0 0 0 0 0 0.1 0"/>
<feBlend mode="normal" in2="BackgroundImageFix" result="effect1_dropShadow_4718_412"/>
<feBlend mode="normal" in="SourceGraphic" in2="effect1_dropShadow_4718_412" result="shape"/>
</filter>
<filter id="filter2_d_4718_412" x="100.989" y="120.447" width="617.867" height="617.867" filterUnits="userSpaceOnUse" color-interpolation-filters="sRGB">
<feFlood flood-opacity="0" result="BackgroundImageFix"/>
<feColorMatrix in="SourceAlpha" type="matrix" values="0 0 0 0 0 0 0 0 0 0 0 0 0 0 0 0 0 0 127 0" result="hardAlpha"/>
<feOffset dy="6.05752"/>
<feGaussianBlur stdDeviation="7.5719"/>
<feComposite in2="hardAlpha" operator="out"/>
<feColorMatrix type="matrix" values="0 0 0 0 0 0 0 0 0 0 0 0 0 0 0 0 0 0 0.25 0"/>
<feBlend mode="normal" in2="BackgroundImageFix" result="effect1_dropShadow_4718_412"/>
<feBlend mode="normal" in="SourceGraphic" in2="effect1_dropShadow_4718_412" result="shape"/>
</filter>
</defs>
</svg>
